<?xml version="1.0" standalone="no"?>
<!DOCTYPE svg PUBLIC "-//W3C//DTD SVG 20010904//EN"
 "http://www.w3.org/TR/2001/REC-SVG-20010904/DTD/svg10.dtd">
<svg version="1.0" xmlns="http://www.w3.org/2000/svg"
 width="377.000000pt" height="124.000000pt" viewBox="0 0 377.000000 124.000000"
 preserveAspectRatio="xMidYMid meet">

<g transform="translate(0.000000,124.000000) scale(0.100000,-0.100000)"
fill="#000000" stroke="none">
<path d="M322 1194 c-210 -104 -199 -411 18 -507 15 -7 121 -13 255 -17 195
-4 235 -8 263 -23 45 -25 72 -72 72 -127 0 -58 -28 -103 -79 -130 -37 -18 -58
-20 -276 -20 l-235 0 0 -66 0 -65 263 3 262 3 51 27 c95 50 148 138 148 250 0
123 -77 227 -196 263 -39 11 -101 15 -250 15 -221 0 -249 6 -288 60 -47 65
-32 157 33 204 27 20 45 21 364 26 l336 5 -52 63 -53 62 -292 0 -292 0 -52
-26z"/>
<path d="M415 999 c-38 -23 -46 -60 -21 -95 13 -18 31 -19 253 -24 236 -5 238
-5 295 -33 202 -99 270 -345 146 -532 -38 -58 -103 -108 -176 -136 -53 -20
-80 -22 -354 -26 l-298 -4 0 225 c0 123 -4 235 -9 248 -5 13 -34 45 -65 72
l-56 48 0 -356 0 -356 355 0 c224 0 373 4 407 11 184 39 329 183 373 371 47
198 -35 398 -210 515 -103 68 -144 76 -395 80 -162 3 -231 0 -245 -8z"/>
<path d="M2407 768 c-31 -11 -44 -46 -28 -76 5 -10 31 -27 56 -36 47 -18 56
-35 30 -56 -12 -10 -21 -10 -40 -2 -14 7 -25 16 -25 21 0 6 -7 8 -15 5 -40
-16 7 -64 62 -64 36 0 73 29 73 58 0 29 -28 60 -59 67 -33 7 -56 29 -46 45 8
13 38 13 52 -1 7 -7 20 -9 29 -5 17 6 16 8 -2 25 -26 25 -53 31 -87 19z"/>
<path d="M2803 773 c-55 -11 -82 -107 -48 -172 16 -33 33 -41 80 -41 98 0 118
176 24 209 -18 6 -32 10 -33 10 -1 -1 -11 -4 -23 -6z m59 -50 c25 -23 24 -87
-2 -113 -24 -24 -29 -24 -58 -4 -17 12 -22 25 -22 59 0 67 41 96 82 58z"/>
<path d="M3630 773 c-30 -11 -60 -47 -66 -79 -8 -42 11 -100 39 -119 54 -38
127 -1 127 63 0 30 -2 32 -35 32 -24 0 -35 -5 -35 -15 0 -8 7 -15 15 -15 22 0
18 -27 -5 -40 -56 -30 -96 66 -51 121 18 22 22 23 52 12 17 -7 38 -9 46 -5 30
18 -50 59 -87 45z"/>
<path d="M1420 664 l0 -107 56 6 c66 7 99 32 108 81 14 76 -33 126 -119 126
l-45 0 0 -106z m114 54 c19 -27 21 -78 4 -100 -12 -15 -41 -22 -75 -19 -9 1
-13 22 -13 71 l0 70 34 0 c25 0 39 -7 50 -22z"/>
<path d="M1620 665 l0 -105 70 0 c63 0 70 2 70 20 0 18 -7 20 -56 20 -54 0
-55 0 -52 28 2 21 9 28 31 30 38 5 36 32 -3 32 -25 0 -30 4 -30 25 0 23 3 25
50 25 38 0 50 4 50 15 0 12 -14 15 -65 15 l-65 0 0 -105z"/>
<path d="M1770 755 c0 -10 10 -15 30 -15 l30 0 0 -90 c0 -83 1 -90 20 -90 19
0 20 7 20 90 l0 90 30 0 c20 0 30 5 30 15 0 12 -16 15 -80 15 -64 0 -80 -3
-80 -15z"/>
<path d="M1940 755 c0 -10 10 -15 30 -15 l30 0 0 -90 c0 -73 3 -90 15 -90 12
0 15 17 15 90 l0 90 30 0 c20 0 30 5 30 15 0 12 -15 15 -75 15 -60 0 -75 -3
-75 -15z"/>
<path d="M2154 698 c-14 -40 -33 -88 -40 -105 -12 -30 -11 -33 5 -33 10 0 23
11 29 25 10 21 19 25 52 25 33 0 42 -4 52 -25 6 -14 19 -25 29 -25 15 0 13 13
-22 101 -21 55 -39 102 -39 105 0 2 -9 4 -19 4 -15 0 -26 -17 -47 -72z m65
-19 c6 -18 11 -34 11 -35 0 -2 -13 -4 -30 -4 -16 0 -30 2 -30 4 0 14 24 66 30
66 4 0 13 -14 19 -31z"/>
<path d="M2540 665 c0 -98 1 -105 20 -105 17 0 20 7 20 45 l0 45 50 0 50 0 0
-45 c0 -33 4 -45 15 -45 12 0 15 18 15 105 0 87 -3 105 -15 105 -11 0 -15 -11
-15 -40 l0 -40 -50 0 -50 0 0 40 c0 33 -3 40 -20 40 -19 0 -20 -7 -20 -105z"/>
<path d="M2950 665 c0 -87 3 -105 15 -105 11 0 15 11 15 40 l0 40 40 0 c73 0
114 66 70 110 -16 16 -33 20 -80 20 l-60 0 0 -105z m110 60 c21 -26 4 -45 -40
-45 -35 0 -40 3 -40 23 0 13 3 27 7 30 12 13 60 7 73 -8z"/>
<path d="M3120 665 c0 -98 1 -105 20 -105 17 0 20 7 20 40 l0 40 40 0 c48 0
80 27 80 68 0 45 -27 62 -98 62 l-62 0 0 -105z m115 45 c0 -22 -5 -25 -37 -28
-36 -3 -38 -2 -38 28 0 30 2 31 38 28 32 -3 37 -6 37 -28z"/>
<path d="M3300 665 c0 -98 1 -105 20 -105 19 0 20 7 20 105 0 98 -1 105 -20
105 -19 0 -20 -7 -20 -105z"/>
<path d="M3370 665 c0 -98 1 -105 20 -105 17 0 19 8 22 67 l3 67 44 -67 c28
-43 50 -67 62 -67 17 0 19 9 19 105 0 98 -1 105 -20 105 -17 0 -19 -8 -22 -67
l-3 -67 -44 67 c-28 43 -50 67 -62 67 -17 0 -19 -9 -19 -105z"/>
</g>
</svg>
